<svg xmlns:xlink="http://www.w3.org/1999/xlink" xmlns="http://www.w3.org/2000/svg" id="b7e3a944-3792-47ef-b74c-e61db3ffd068" data-name="Layer 1" width="26.2" height="4.14" viewBox="0 0 742.67 117.4">
  <defs>
    <style>
      .edb2869d-bdab-48ef-830f-864bbff7dd61 {
        fill: #f29202;
      }

      .a316746d-ca81-4725-9b97-c123346c02cc {
        fill: #fff;
      }

      .edb2869d-bdab-48ef-830f-864bbff7dd61:hover {
        fill: #fff;
      }

       .a316746d-ca81-4725-9b97-c123346c02cc:hover {
        fill: #f29202;
      }
    </style>
  </defs>
  <g id="bb62c2a1-8560-4157-920c-15141eeb3087" data-name="#f29202ff">
    <path class="edb2869d-bdab-48ef-830f-864bbff7dd61" d="M495.5,26.37c85.61-3.7,171.18-7.89,256.79-11.51-.37,6.2-1.93,12.23-2.76,18.37q-159,.1-317.94.06-34.79,0-69.56-.16l-3,.11c-1.19-.05-29.85.12-4.36-.85,4.9,0,30.1-1.15,45.17-1.59,9.35-.21,17.9-.54,26.84-1.22,8-.72,16-.44,24-1.06,7.61-.87,15.3-.44,22.93-1.11C480.84,26.79,488.21,27.19,495.5,26.37Z" transform="translate(-9.62 -14.86)"/>
    <path class="edb2869d-bdab-48ef-830f-864bbff7dd61" d="M264.07,26.66q22.73,0,45.46,0c3.14.09,6.92,0,9.1,2.72,2.2,3.29,1.26,7.48.65,11.11-1.57,7.26-3,14.54-4.45,21.83-.87,3.8-1.74,7.9-4.58,10.78C307.57,76,303.44,77,299.6,77c-9.84,0-19.69,0-29.54,0-1.7,7.72-3.36,15.45-4.92,23.21a64.76,64.76,0,0,1-16.4,0C252.3,82.1,256,64,260.11,46.07c5.36.07,10.72,0,16.09.08-.7,5.73-2.35,11.29-3.33,17a192.8,192.8,0,0,0,25.21-.06c2.26-7.15,4.33-14.59,4.22-22.14-13.66-.33-27.34.19-41-.25C261.53,35.9,263.16,31.33,264.07,26.66Z" transform="translate(-9.62 -14.86)"/>
    <path class="edb2869d-bdab-48ef-830f-864bbff7dd61" d="M327.39,45.69a63.79,63.79,0,0,1,14.81-.13L341.69,50c2.23-2,4.69-4.2,7.86-4.43a110.78,110.78,0,0,1,17.94,0c-.81,4.4-1.94,8.74-2.67,13.16-8.19.13-16.39-.11-24.57.17-3.64,13.64-5.82,27.61-9.09,41.34-5-.07-10.09.21-15.13-.12C319.86,82,323.82,63.87,327.39,45.69Z" transform="translate(-9.62 -14.86)"/>
    <path class="edb2869d-bdab-48ef-830f-864bbff7dd61" d="M382,45.93c8.1-1.34,16.37-.41,24.55-.69,7.64.31,15.46-.77,23,1,3.5,1.95,2.78,6.46,2.36,9.78-2.39,11.48-4.74,23-7.25,34.45-.88,3-1.93,6.48-4.82,8.2-2.43,1.62-5.45,1.47-8.23,1.56-11.67,0-23.35-.13-35,.19-3.16-.24-7.27.17-9.24-2.89-1.08-3.08-.41-6.44.06-9.57,2.37-11,4.58-22,7-33,.86-4,3.3-8.13,7.63-9m6.45,13.18c-1.26,7.85-3.2,15.57-4.75,23.36a8.82,8.82,0,0,0,.16,4.53c8.29-.21,16.61.23,24.89-.22,2.47-1.07,2.26-4.25,2.9-6.46,1.08-7.18,3.65-14.14,3.73-21.44C406.42,58.82,397.41,58.4,388.46,59.11Z" transform="translate(-9.62 -14.86)"/>
    <path class="edb2869d-bdab-48ef-830f-864bbff7dd61" d="M442.35,52.89c1.32-5.45,7-7.87,12.18-7.63,15.26.18,30.57-.46,45.81.35-4.51,21.65-9.15,43.28-13.71,64.92-1,4-1.77,8.79-5.56,11.21-3.79,2.11-8.32,1.8-12.52,1.89-13-.06-25.95,0-38.92,0,.18-4.61,1.5-9,2.64-13.48,12.91-.08,25.82.11,38.72-.12a37.28,37.28,0,0,0,2.35-8.41c3-14.27,6.1-28.51,9-42.81-8.67,0-17.35-.19-26,.15-1.89,6.57-2.94,13.33-4.55,20a35.93,35.93,0,0,0-.94,9c6.56.16,13.12.07,19.68.1a54.34,54.34,0,0,1-2.4,12.77c-7.82,0-15.64-.06-23.46,0-2.93,0-6.07-.18-8.63-1.75-2.85-2.07-2.12-6-1.64-9C437.13,77.6,439.22,65.12,442.35,52.89Z" transform="translate(-9.62 -14.86)"/>
    <path class="edb2869d-bdab-48ef-830f-864bbff7dd61" d="M510.28,45.72a54.65,54.65,0,0,1,15.06,0l-.68,4.06c2.3-1.85,4.73-3.94,7.83-4.15,5.92-.7,11.9-.22,17.85-.37a134.63,134.63,0,0,1-2.64,13.47c-8.15.18-16.3-.18-24.44.27-2.36,7.61-3.5,15.53-5.27,23.3-1,5.88-2.76,11.64-3.33,17.61a41.86,41.86,0,0,1-15.62.2C502.77,82,507,63.92,510.28,45.72Z" transform="translate(-9.62 -14.86)"/>
    <path class="edb2869d-bdab-48ef-830f-864bbff7dd61" d="M565.13,45.83c10.8-.89,21.63-.21,32.45-.51,5.14.06,10.58-.5,15.34,1.86.5,2.4,1.24,4.86.65,7.33-1.44,7.58-3.22,15.1-4.59,22.71-12.1.86-24.23-.12-36.35,0,.44-3.07,1-6.12,1.57-9.17,7.31,0,14.63,0,21.94,0a42.58,42.58,0,0,0,1.89-10c-8.11-.28-16.24-.22-24.35-.08-2-.19-3,1.83-3.27,3.5Q567.71,74.24,565,87a13.1,13.1,0,0,0,4.56.92c11.58,0,23.16,0,34.74,0-.56,4.1-1.46,8.13-2.32,12.17a42.22,42.22,0,0,1-8.4.54c-5.66-.36-11.34-.3-17-.39-8.76.28-17.92,1.43-26.37-1.45a14.71,14.71,0,0,1-.66-9.42c2.42-11.31,4.67-22.66,7.16-33.95C557.62,51.07,560.33,46.42,565.13,45.83Z" transform="translate(-9.62 -14.86)"/>
    <path class="edb2869d-bdab-48ef-830f-864bbff7dd61" d="M633.45,45.74c16-1,32.08-.08,48.09-.4a65.94,65.94,0,0,1-2.45,12.45c-13.25.1-26.52-.34-39.76.27a28.74,28.74,0,0,0-1.7,9.59c11,.63,22,0,33,.33,2.43.15,5.63,1.54,5.57,4.4.23,5.08-1.6,9.93-2.43,14.88-.83,3.76-1.49,8-4.47,10.74-2.4,2-5.74,2.17-8.74,2.2-15,0-29.94,0-44.91,0a64.29,64.29,0,0,1,2.23-12.39c12.95,0,25.92.3,38.86-.13,2.86-2.32,2.3-6.63,2.82-9.94-10.34-.38-20.7-.56-31-.22-3,0-7.29-1.29-7.21-5,.66-6.1,2.35-12,3.5-18.06C625.45,50.08,628.73,45.89,633.45,45.74Z" transform="translate(-9.62 -14.86)"/>
    <path class="edb2869d-bdab-48ef-830f-864bbff7dd61" d="M700.8,45.71c10.58-.92,21.2,0,31.8-.39a138,138,0,0,1,16,.3,77,77,0,0,1-2.54,12.21c-13.26,0-26.53-.32-39.77.18a31.94,31.94,0,0,0-1.53,9.75c10.6.29,21.2,0,31.81.17,2.52-.05,5.67,1,6.53,3.59.68,5-1.48,9.89-2.16,14.83-1,4.23-1.48,9.28-5.31,12-2.54,2.07-6,1.64-9,1.8-14.66,0-29.32,0-44,0,.32-4.1,1.2-8.13,1.88-12.17,12-.29,24,0,36.07-.12a26.23,26.23,0,0,0,4.47-.74,82.62,82.62,0,0,0,1.42-9.38c-9.63-.64-19.29-.27-28.93-.13-2.86-.21-6.6.13-8.38-2.59-1.82-2.47-.37-5.5,0-8.17,1.19-5.11,1.79-10.38,3.53-15.34A8.91,8.91,0,0,1,700.8,45.71Z" transform="translate(-9.62 -14.86)"/>
  </g>
  <g id="f4574640-144a-4cb1-851c-7ed363b16d7d" data-name="#000000ff">
    <path class="a316746d-ca81-4725-9b97-c123346c02cc" d="M237.58,22.67c5,0,10,0,15,0-.34,1.88-.65,3.77-1.08,5.63-.58,3.06-1.28,6.09-2,9.13-.35,1.64-.64,3.3-1,5s-.68,3.29-1.06,4.93c-.95,4.7-1.9,9.4-3,14.08-.32,1.64-.6,3.3-1,4.93-1,4.67-1.92,9.35-3,14-.34,1.65-.64,3.33-1,5-1,5-2.24,9.9-3,14.91-5,0-10,0-15,0,.36-1.56.7-3.13,1.08-4.68s.62-3.31,1-5c.57-3.06,1.27-6.09,2-9.12.34-1.66.65-3.32,1-5s.67-3.29,1.05-4.91q1.39-7.08,3-14.1c.32-1.65.61-3.3,1-4.93,1.35-6.32,2.54-12.67,4-19a60.73,60.73,0,0,1,2.14-9.22Z" transform="translate(-9.62 -14.86)"/>
    <path class="a316746d-ca81-4725-9b97-c123346c02cc" d="M31,26.69c15.9.07,31.8,0,47.69,0,3.23-.06,6.92,1,8.43,4.13,1.2,6.94-1.22,13.73-2.55,20.46q-.5,2.47-.87,5c-1.54,5-5.83,9.13-11.3,9.21l4.17.83a6.32,6.32,0,0,1,4.08,8q-1.45,7.5-3.06,15c-.34,1.65-.64,3.31-1,5-.34,2-.65,3.92-1,5.89-5.32,0-10.63,0-16,0a59.44,59.44,0,0,1,1-6.66c1.21-6.81,3.22-13.5,3.76-20.41l-3.66-1c-7.6,0-15.2.08-22.79-.07C35.46,80,34.61,88.34,32.46,96.33c-.17,1.28-.34,2.57-.5,3.86-5.45,0-10.91-.07-16.36.07,1.09-4.58,2-9.21,3-13.8.33-1.64.64-3.28,1-4.9s.66-3.32,1.06-5q1.89-9.56,4-19c.77-3.77,1.51-7.55,2.31-11.32,2.66.72,5.4.25,8-.24l.19.87c2.24-.27,4.48-.6,6.72-.94,2.32,1.85-.34,5-.39,7.37-.4,2.49-1,5-1.55,7.41,8.35,0,16.7-.18,25,.08a12,12,0,0,0,2.75-5.17C68.19,50.67,70.16,46,70.12,41c-5.85-.59-11.72-.16-17.58-.36-2.42-.49-5-.77-7.31.28l-.43-1-2,.85a14,14,0,0,0-6.21,0c-2.9-.9-6,.61-8.8-.68,1.14-2,1.35-4.29,1.88-6.47S30.5,29,31,26.69Z" transform="translate(-9.62 -14.86)"/>
    <path class="a316746d-ca81-4725-9b97-c123346c02cc" d="M97.49,50.46a10.83,10.83,0,0,1,9-4.74c13-.12,26.09,0,39.14,0,2.61-.12,6.26.8,6.63,3.89.66,6.38-1.62,12.52-2.74,18.72-.59,3-1.28,5.92-1.73,8.92-12.1,0-24.19-.06-36.29,0,.4-1.58.77-3.16,1.2-4.72l.45-3.84c6.86,0,13.72-.05,20.58,0l2-.82c.45-3.31,1.33-6.55,1.51-9.89-9-.27-18-.34-27,0-1.09,3.72-1.86,7.53-2.73,11.31-1.08,6.19-2.87,12.25-3.56,18.51,13.13.38,26.28.14,39.41.14-.88,4-1.77,8.1-2.48,12.19-15.12,0-30.23,0-45.34,0-3.06.17-6.8-1.13-7.29-4.58-.3-5.08,1.52-10,2.4-15,.9-4.72,1.92-9.4,2.95-14.09.33-1.67.64-3.33,1-5A65.45,65.45,0,0,1,97.49,50.46Z" transform="translate(-9.62 -14.86)"/>
    <path class="a316746d-ca81-4725-9b97-c123346c02cc" d="M166.52,45.67c15.35,0,30.72-.05,46.07,0,2.88-.13,7,1.21,6.74,4.76.28,7.78-2.46,15.25-3.82,22.83-1.24,6.35-2.58,12.68-4,19-.5,2.64-1.1,5.27-1.58,7.93-16.13-.08-32.27,0-48.4-.06-2.46.06-5.29-.74-6.31-3.22-1-4.18.52-8.39,1.34-12.47.55-3.32,1.31-6.6,1.95-9.9a13,13,0,0,1,5-7.38c11-1.16,22.06-.2,33.08-.56-.56,2.86-1.2,5.7-1.69,8.57-7.52.35-15.2-.88-22.58.87-.46,3.88-2.64,7.81-1.38,11.7,9-.21,17.92-.1,26.89-.06.22-1.06.47-2.11.73-3.16.94-4.71,1.95-9.42,3-14.12.34-1.62.64-3.25,1-4.86.17-2.61,2.13-5.56.55-8l-.09-.43c-12.83.15-25.66,0-38.49.09C164.92,53.32,165.9,49.53,166.52,45.67Z" transform="translate(-9.62 -14.86)"/>
    <path class="a316746d-ca81-4725-9b97-c123346c02cc" d="M12.91,114q187.8.18,375.6,0c9.6.17,19.2-.28,28.79-.14-12.23.52-24.56,1.27-36.85,1.38-7.28,1-14.67.77-22,1-7.28,1-14.66.78-22,1-7.29,1-14.69.77-22,1-7.29,1-14.68.77-22,1-7.26,1-14.63.76-22,1-7.29,1-14.68.77-22,1-7.29,1-14.68.74-22,1-7.29.94-14.68.79-22,1-7.27,1-14.65.78-22,1-7.29,1-14.68.78-22,1-7.3,1-14.7.76-22,1-7.29,1-14.68.77-22,1-7.28,1-14.66.76-22,1a211.47,211.47,0,0,1-25.3.91l-.06.6c-19.83.46-39.61,1.75-59.43,2.52.34-1.58.64-3.16,1-4.73.3-2,.56-4,1-6C12,119,12.4,116.45,12.91,114Z" transform="translate(-9.62 -14.86)"/>
  </g>
</svg>